<svg width="71" height="63" viewBox="0 0 71 63" fill="none" xmlns="http://www.w3.org/2000/svg">
<circle cx="35.4335" cy="22.1464" r="22.1464" fill="#1C2925"/>
<path d="M38.5489 10.5918H32.316C31.598 10.5918 30.9439 11.0003 30.6324 11.6424L27.4459 18.2124C27.0472 19.034 27.6499 19.9871 28.5688 19.9871H32.8689C33.4669 19.9871 34.012 19.6467 34.2721 19.1114L35.4324 16.7192L41.3772 28.974L33.3454 23.1994C33.0262 22.9704 32.643 22.8466 32.249 22.8466H26.3697C25.6517 22.8466 24.9976 23.2551 24.6861 23.8972L20.794 31.9263C20.3953 32.7479 20.9981 33.7011 21.917 33.7011H26.2171C26.8151 33.7011 27.3602 33.3606 27.6203 32.8253L30.7803 26.311L39.4864 32.8918C40.1811 33.4163 41.0283 33.7011 41.9005 33.7011H48.9494C49.8683 33.7011 50.4711 32.7479 50.0723 31.9263L40.2324 11.6424C39.921 11.0003 39.2668 10.5918 38.5489 10.5918Z" fill="#D7FE51"/>
<g clip-path="url(#clip0_647_912)">
<path d="M50.3684 52.3031C51.0115 52.3031 51.5328 51.7718 51.5328 51.1164C51.5328 50.461 51.0115 49.9297 50.3684 49.9297C49.7254 49.9297 49.2041 50.461 49.2041 51.1164C49.2041 51.7718 49.7254 52.3031 50.3684 52.3031Z" fill="#1C2925"/>
<path d="M18.0654 50.3369L13.2871 62.7346H15.3895L16.6783 59.3341H21.6568L22.9308 62.7346H25.0506L20.2723 50.3369H18.0654ZM19.1253 52.6394H19.195L21.0772 57.6161H17.2422L19.1245 52.6394H19.1253Z" fill="#1C2925"/>
<path d="M31.5929 54.1974C30.9385 53.7611 30.1422 53.542 29.2033 53.542C28.2643 53.542 27.5377 53.7371 26.8833 54.1265C26.2289 54.5159 25.7251 55.0711 25.3718 55.7913C25.0184 56.5115 24.8418 57.3381 24.8418 58.2712C24.8418 59.2042 25.0184 60.0601 25.3718 60.7688C25.7251 61.4775 26.2315 62.0265 26.892 62.4159C27.5525 62.8052 28.3226 63.0004 29.2033 63.0004C29.9212 63.0004 30.5556 62.8788 31.1056 62.6376C31.6555 62.3955 32.1046 62.0566 32.4526 61.6194C32.7999 61.183 33.0374 60.681 33.1653 60.1142H31.3231C31.2074 60.4681 30.9698 60.7759 30.6104 61.0349C30.251 61.2948 29.782 61.4243 29.2033 61.4243C28.3809 61.4243 27.7492 61.1325 27.3088 60.548C26.9686 60.0965 26.7745 59.5085 26.7249 58.7856H33.2515C33.3785 57.7585 33.2976 56.8459 33.0087 56.0494C32.7189 55.252 32.2473 54.6356 31.5929 54.1983V54.1974ZM27.0138 56.4822C27.2105 56.0219 27.4916 55.6707 27.8562 55.4285C28.2208 55.1864 28.6472 55.0658 29.1337 55.0658C29.6897 55.0658 30.1527 55.1988 30.5234 55.464C30.8941 55.7301 31.1517 56.084 31.297 56.5266C31.3858 56.798 31.4267 57.0898 31.4223 57.4029H26.771C26.8137 57.0676 26.8946 56.7607 27.0138 56.4822Z" fill="#1C2925"/>
<path d="M46.5111 53.9592C46.0246 53.6816 45.4451 53.5432 44.7733 53.5432C44.0197 53.5432 43.401 53.7144 42.9137 54.0568C42.5595 54.306 42.2706 54.6448 42.0452 55.0696V50.3369H40.1855V62.7346H42.0452V58.3247C42.0452 57.2861 42.2506 56.5038 42.6622 55.9779C43.0729 55.4528 43.6377 55.1894 44.3565 55.1894C44.9586 55.1894 45.4103 55.3756 45.7114 55.7473C46.0125 56.1189 46.163 56.6892 46.163 57.4564V62.7337H48.0226V57.0661C48.0226 56.322 47.8921 55.6878 47.6319 55.1628C47.3709 54.6377 46.9975 54.2359 46.5111 53.9583V53.9592Z" fill="#1C2925"/>
<path d="M51.3069 53.8086H49.4473V62.7348H51.3069V53.8086Z" fill="#1C2925"/>
<path d="M54.7651 53.8086C54.1394 53.8086 53.6591 53.9798 53.3232 54.3221C52.9873 54.6645 52.8193 55.1541 52.8193 55.7918V62.7339H54.679V55.4379H57.5811V53.8086H54.766H54.7651Z" fill="#1C2925"/>
<path d="M36.2151 51.0459H34.3555V60.7508C34.3555 61.3885 34.5234 61.8781 34.8593 62.2205C35.1952 62.5629 35.6756 62.734 36.3013 62.734H39.1164V61.1047H36.2142V55.4372H39.1164V53.8078H36.2142V51.0459H36.2151Z" fill="#1C2925"/>
</g>
<defs>
<clipPath id="clip0_647_912">
<rect width="44.2928" height="13.07" fill="white" transform="translate(13.2871 49.9297)"/>
</clipPath>
</defs>
</svg>
