<svg width="51" height="45" viewBox="0 0 51 45" fill="none" xmlns="http://www.w3.org/2000/svg">
<path d="M30.2887 0.817383H19.7332C18.5173 0.817383 17.4095 1.58898 16.882 2.80191L11.4856 15.2118C10.8104 16.7637 11.8311 18.5641 13.3873 18.5641H20.6695C21.6824 18.5641 22.6055 17.9211 23.046 16.9099L25.0109 12.3913L35.0784 35.5393L21.4766 24.6317C20.9359 24.1991 20.2871 23.9653 19.6198 23.9653H9.66306C8.44715 23.9653 7.33938 24.7369 6.81187 25.9498L0.22065 41.1158C-0.454562 42.6678 0.566168 44.4682 2.12232 44.4682H9.40458C10.4174 44.4682 11.3405 43.8252 11.781 42.8139L17.1326 30.5093L31.8765 42.9396C33.0528 43.9304 34.4876 44.4682 35.9647 44.4682H47.9022C49.4583 44.4682 50.4791 42.6678 49.8038 41.1158L33.1398 2.80191C32.6123 1.58898 31.5046 0.817383 30.2887 0.817383Z" fill="#D7FE51"/>
</svg>
